<svg id="Group_133" data-name="Group 133" xmlns="http://www.w3.org/2000/svg" xmlns:xlink="http://www.w3.org/1999/xlink" width="36.594" height="36.662" viewBox="0 0 36.594 36.662">
  <defs>
    <clipPath id="clip-path">
      <rect id="Rectangle_177" data-name="Rectangle 177" width="36.594" height="36.662" fill="#e1c883"/>
    </clipPath>
  </defs>
  <g id="Group_161" data-name="Group 161" clip-path="url(#clip-path)">
    <path id="Path_410" data-name="Path 410" d="M35.545,27.764a48.636,48.636,0,0,0-7.159-4.323c-1.575-.762-1.812-.692-2.957.626-.634.73-1.285,1.445-1.919,2.175a.566.566,0,0,1-.673.186,17.863,17.863,0,0,1-6.661-3.618,18.609,18.609,0,0,1-6.018-9.1.478.478,0,0,1,.152-.57q1.2-1.051,2.383-2.116c1.126-1.009,1.2-1.27.546-2.638A50.03,50.03,0,0,0,8.782.973,3.857,3.857,0,0,0,8.2.342a.947.947,0,0,0-1.362-.1A6.08,6.08,0,0,0,6.1.82,40.043,40.043,0,0,0,.5,7.408,2.762,2.762,0,0,0,.066,9.641a24.68,24.68,0,0,0,2.88,7.687A43.294,43.294,0,0,0,12.893,29.2a36.15,36.15,0,0,0,9.584,6,19.745,19.745,0,0,0,5.549,1.456,4.89,4.89,0,0,0,.815-.366,35.822,35.822,0,0,0,7-5.867c1.078-1.178,1.024-1.721-.292-2.665" transform="translate(0 0)" fill="#e1c883"/>
    <path id="Path_411" data-name="Path 411" d="M193.914,17.322H196.5A16.952,16.952,0,0,0,179.533.375V2.931a14.484,14.484,0,0,1,14.381,14.391" transform="translate(-159.919 -0.327)" fill="#e1c883"/>
    <path id="Path_412" data-name="Path 412" d="M187.37,70.655h2.548a10.372,10.372,0,0,0-10.41-10.406V62.8a7.973,7.973,0,0,1,7.862,7.857" transform="translate(-159.897 -53.662)" fill="#e1c883"/>
  </g>
</svg>
