<svg id="Group_135" data-name="Group 135" xmlns="http://www.w3.org/2000/svg" xmlns:xlink="http://www.w3.org/1999/xlink" width="30.163" height="41.616" viewBox="0 0 30.163 41.616">
  <defs>
    <clipPath id="clip-path">
      <rect id="Rectangle_179" data-name="Rectangle 179" width="30.163" height="41.616" fill="#e1c883"/>
    </clipPath>
  </defs>
  <g id="Group_165" data-name="Group 165" clip-path="url(#clip-path)">
    <path id="Path_417" data-name="Path 417" d="M30.163,15.206a15.248,15.248,0,0,1-3.693,9.986,10.866,10.866,0,0,0-.744,1.081q-4.68,7.144-9.361,14.288a4.045,4.045,0,0,1-.65.784.913.913,0,0,1-1.231.063,3.358,3.358,0,0,1-.763-.815Q9.5,34.122,5.3,27.636c-.486-.749-.958-1.51-1.465-2.245-.472-.684-1.024-1.315-1.469-2.015A15.268,15.268,0,0,1,10.292.786,15.083,15.083,0,0,1,29.726,11.56a15.376,15.376,0,0,1,.437,3.646m-15-7.746a7.693,7.693,0,1,0,7.607,7.715A7.659,7.659,0,0,0,15.164,7.46" transform="translate(0 0)" fill="#e1c883"/>
  </g>
</svg>
