<svg xmlns="http://www.w3.org/2000/svg" xmlns:xlink="http://www.w3.org/1999/xlink" width="288.082" height="63.069" viewBox="0 0 288.082 63.069">
  <defs>
    <clipPath id="clip-path">
      <rect id="Rectangle_4" data-name="Rectangle 4" width="288.082" height="63.069" fill="#fff"/>
    </clipPath>
  </defs>
  <g id="Group_116" data-name="Group 116" transform="translate(0 0)">
    <path id="Path_1" data-name="Path 1" d="M159.4,33.849h-2.468l9.088-20.673h2.091L177.2,33.849h-2.439l-8.1-18.931h.871Zm1.393-5.314.842-1.974H172.5l.843,1.974Z" transform="translate(-65.801 -5.524)" fill="#fff"/>
    <path id="Path_2" data-name="Path 2" d="M211.335,33.849V15.208h-7.2V13.176h16.812v2.033h-7.2V33.849Z" transform="translate(-85.591 -5.524)" fill="#fff"/>
    <path id="Path_3" data-name="Path 3" d="M253.084,33.849V13.176h2.381V31.817H265.83v2.033Z" transform="translate(-106.114 -5.524)" fill="#fff"/>
    <path id="Path_4" data-name="Path 4" d="M293.552,33.849h-2.468l9.088-20.673h2.091l9.088,20.673h-2.44l-8.1-18.931h.871Zm1.394-5.314.841-1.974h10.86l.842,1.974Z" transform="translate(-122.047 -5.524)" fill="#fff"/>
    <path id="Path_5" data-name="Path 5" d="M346.285,33.849V13.176h1.828L361.3,30.742l-.7.174V13.176h2.265V33.849h-1.858L347.852,16.312l.668-.2V33.849Z" transform="translate(-145.192 -5.524)" fill="#fff"/>
    <path id="Path_6" data-name="Path 6" d="M401.984,33.849V15.208h-7.2V13.176h16.811v2.033h-7.2V33.849Z" transform="translate(-165.527 -5.524)" fill="#fff"/>
    <rect id="Rectangle_2" data-name="Rectangle 2" width="2.381" height="20.673" transform="translate(257.682 7.652)" fill="#fff"/>
    <g id="Group_2" data-name="Group 2" transform="translate(0 0)">
      <g id="Group_1" data-name="Group 1" clip-path="url(#clip-path)">
        <path id="Path_7" data-name="Path 7" d="M477.356,33.914a15.422,15.422,0,0,1-2.991-.276,10.194,10.194,0,0,1-2.585-.871,9.461,9.461,0,0,1-2.148-1.466l.9-1.829a10.214,10.214,0,0,0,3.15,1.858,11.235,11.235,0,0,0,3.7.552,6.518,6.518,0,0,0,3.832-.973,3.173,3.173,0,0,0,1.366-2.744,2.283,2.283,0,0,0-.683-1.728,4.87,4.87,0,0,0-1.858-1.045q-1.178-.392-2.657-.74-1.48-.319-2.816-.74a10.38,10.38,0,0,1-2.366-1.06,4.7,4.7,0,0,1-1.611-1.626,4.793,4.793,0,0,1-.581-2.468,5.374,5.374,0,0,1,.929-3.121,6.123,6.123,0,0,1,2.613-2.105,9.668,9.668,0,0,1,3.978-.755,11.981,11.981,0,0,1,2.73.3,10.333,10.333,0,0,1,2.424.886,8.465,8.465,0,0,1,1.99,1.423l-.929,1.829a9.834,9.834,0,0,0-2.933-1.829,9.074,9.074,0,0,0-3.281-.581,6.2,6.2,0,0,0-3.775,1.016,3.344,3.344,0,0,0-1.365,2.846A2.675,2.675,0,0,0,473,20.5a4.214,4.214,0,0,0,1.713,1.118,21.329,21.329,0,0,0,2.526.769q1.509.348,2.9.755a12.449,12.449,0,0,1,2.483,1,4.855,4.855,0,0,1,1.728,1.539,4.192,4.192,0,0,1,.638,2.4,5.174,5.174,0,0,1-.929,3.078,6.033,6.033,0,0,1-2.642,2.032,10.387,10.387,0,0,1-4.065.726" transform="translate(-196.91 -5.357)" fill="#fff"/>
        <path id="Path_8" data-name="Path 8" d="M165.637,88.4l-5.96-13.644h1.667l5.309,12.379h-.632l5.327-12.379h1.629L167.017,88.4Z" transform="translate(-66.95 -31.344)" fill="#fff"/>
        <path id="Path_9" data-name="Path 9" d="M208.616,88.4V74.756h8.624v1.3h-7.071v4.753h6.688v1.322h-6.687V87.1h7.071v1.3Z" transform="translate(-87.47 -31.344)" fill="#fff"/>
        <path id="Path_10" data-name="Path 10" d="M251.12,88.4V74.756h1.208l8.7,11.594-.459.115V74.756h1.495V88.4h-1.228l-8.681-11.575.441-.134V88.4Z" transform="translate(-105.291 -31.344)" fill="#fff"/>
        <path id="Path_11" data-name="Path 11" d="M301.082,88.4V76.1h-4.753V74.756h11.1V76.1h-4.753V88.4Z" transform="translate(-124.246 -31.344)" fill="#fff"/>
        <path id="Path_12" data-name="Path 12" d="M347.095,88.554a5.454,5.454,0,0,1-4.044-1.39,5.6,5.6,0,0,1-1.38-4.11v-8.3h1.553v8.432a4.177,4.177,0,0,0,.977,3.019,3.861,3.861,0,0,0,2.894,1.006A3.782,3.782,0,0,0,349.95,86.2a4.177,4.177,0,0,0,.978-3.009V74.756H352.5v8.3a5.6,5.6,0,0,1-1.379,4.1,5.408,5.408,0,0,1-4.024,1.4" transform="translate(-143.258 -31.344)" fill="#fff"/>
        <path id="Path_13" data-name="Path 13" d="M389.06,88.4V74.756h5.423a5.167,5.167,0,0,1,3.382.977,3.877,3.877,0,0,1-.019,5.586,5.08,5.08,0,0,1-3.363,1.006l1.417-.268a2.048,2.048,0,0,1,1.285.412,2.816,2.816,0,0,1,.862,1.313l1.724,4.618h-1.666l-1.686-4.542a1.96,1.96,0,0,0-.891-1.141,3.439,3.439,0,0,0-1.5-.278h-3.412V88.4Zm1.552-7.263h3.737a3.624,3.624,0,0,0,2.367-.652,2.363,2.363,0,0,0,.776-1.917,2.291,2.291,0,0,0-.767-1.887,3.736,3.736,0,0,0-2.376-.623h-3.737Z" transform="translate(-163.127 -31.344)" fill="#fff"/>
        <path id="Path_14" data-name="Path 14" d="M435.029,88.4V74.756h8.624v1.3H436.58v4.753h6.688v1.322H436.58V87.1h7.072v1.3Z" transform="translate(-182.401 -31.344)" fill="#fff"/>
        <path id="Path_15" data-name="Path 15" d="M480.98,88.444a10.165,10.165,0,0,1-1.974-.182,6.693,6.693,0,0,1-1.7-.575,6.237,6.237,0,0,1-1.419-.967l.594-1.207a6.738,6.738,0,0,0,2.079,1.226A7.425,7.425,0,0,0,481,87.1a4.309,4.309,0,0,0,2.531-.642,2.1,2.1,0,0,0,.9-1.811,1.507,1.507,0,0,0-.45-1.14,3.22,3.22,0,0,0-1.227-.69q-.776-.258-1.754-.488-.976-.211-1.858-.488a6.857,6.857,0,0,1-1.562-.7,3.1,3.1,0,0,1-1.064-1.073,3.158,3.158,0,0,1-.384-1.629,3.541,3.541,0,0,1,.614-2.06,4.03,4.03,0,0,1,1.724-1.39,6.383,6.383,0,0,1,2.625-.5,7.937,7.937,0,0,1,1.8.2,6.878,6.878,0,0,1,1.6.585,5.623,5.623,0,0,1,1.312.939l-.612,1.207a6.489,6.489,0,0,0-1.936-1.207,5.985,5.985,0,0,0-2.165-.383,4.1,4.1,0,0,0-2.492.671,2.209,2.209,0,0,0-.9,1.878,1.769,1.769,0,0,0,.4,1.207,2.786,2.786,0,0,0,1.131.738,14.022,14.022,0,0,0,1.667.508q1,.23,1.917.5a8.183,8.183,0,0,1,1.638.661,3.2,3.2,0,0,1,1.141,1.016,2.765,2.765,0,0,1,.421,1.581,3.418,3.418,0,0,1-.613,2.031,3.981,3.981,0,0,1-1.744,1.341,6.839,6.839,0,0,1-2.682.479" transform="translate(-199.53 -31.234)" fill="#fff"/>
        <rect id="Rectangle_3" data-name="Rectangle 3" width="1.452" height="63.069" transform="translate(71.253)" fill="#fff"/>
        <path id="Path_16" data-name="Path 16" d="M53.048,63.07,26.33,13.176,0,63.07H3.223l11.57-21.926L26.526,60.312,38.206,41.389l11.61,21.68Zm-26.512-8.2L16.361,38.247l-.058.035L26.348,19.247l10.3,19.238Z" transform="translate(0 -5.525)" fill="#fff"/>
      </g>
    </g>
  </g>
</svg>
